<svg width="39" height="39" viewBox="0 0 39 39" fill="none" xmlns="http://www.w3.org/2000/svg">
<circle cx="19.5" cy="19.5" r="19.5" fill="url(#paint0_linear_4579_23059)"/>
<path d="M24.3801 32.2803C24.2541 32.3433 24.1911 32.3433 24.0651 32.3433H14.9317C13.9868 32.3433 13.168 31.5874 13.168 30.5796V28.9419" stroke="white" stroke-miterlimit="10" stroke-linecap="round" stroke-linejoin="round"/>
<path d="M19.4668 9.54102H24.065C25.0099 9.54102 25.8287 10.2969 25.8287 11.2417" stroke="white" stroke-miterlimit="10" stroke-linecap="round" stroke-linejoin="round"/>
<path d="M19.4683 31.0835C19.2163 31.0835 19.0273 30.8945 19.0273 30.6426C19.0273 30.3906 19.2163 30.2017 19.4683 30.2017C19.7202 30.2017 19.9092 30.3906 19.9092 30.6426C19.9092 30.8945 19.7202 31.0835 19.4683 31.0835Z" stroke="white" stroke-miterlimit="10" stroke-linecap="round" stroke-linejoin="round"/>
<path d="M13.168 28.9419H23.7502" stroke="white" stroke-miterlimit="10" stroke-linecap="round" stroke-linejoin="round"/>
<path d="M8.56934 23.4619H13.1676" stroke="white" stroke-miterlimit="10" stroke-linecap="round" stroke-linejoin="round"/>
<path d="M8.56934 25.1624H16.1281" stroke="white" stroke-miterlimit="10" stroke-linecap="round" stroke-linejoin="round"/>
<path d="M13.9873 23.4619H16.1289" stroke="white" stroke-miterlimit="10" stroke-linecap="round" stroke-linejoin="round"/>
<path d="M15.6881 21.3831H14.8693L15.2472 19.7454L12.3497 21.3831H9.01126C8.06642 21.3831 7.31055 22.139 7.31055 23.0838V25.5404C7.31055 26.4852 8.06642 27.2411 9.01126 27.2411H15.6881C16.633 27.2411 17.3888 26.4852 17.3888 25.5404V23.0838C17.3888 22.139 16.633 21.3831 15.6881 21.3831Z" stroke="white" stroke-miterlimit="10" stroke-linecap="round" stroke-linejoin="round"/>
<path d="M30.1135 11.3047H21.4839C20.6021 11.3047 19.9092 11.9976 19.9092 12.8794V18.1705C19.9092 19.0524 20.6021 19.7453 21.4839 19.7453H25.3263L24.9483 21.8239L27.8458 19.7453H30.1135C30.9953 19.7453 31.6882 19.0524 31.6882 18.1705V12.8794C31.6882 11.9976 30.9953 11.3047 30.1135 11.3047Z" stroke="white" stroke-miterlimit="10" stroke-linecap="round" stroke-linejoin="round"/>
<path d="M16.507 7.90332H9.07425C8.06642 7.90332 7.31055 8.72218 7.31055 9.66702V14.5172C7.31055 15.525 8.12941 16.2809 9.07425 16.2809H10.649L13.5465 18.2966L13.1686 16.2809H16.507C17.5148 16.2809 18.2707 15.462 18.2707 14.5172V9.66702C18.3337 8.65919 17.5148 7.90332 16.507 7.90332Z" stroke="white" stroke-miterlimit="10" stroke-linecap="round" stroke-linejoin="round"/>
<path d="M31.6857 17.9187L29.1662 16.407L26.6466 18.0447L23.2452 15.4622L19.9697 17.8558" stroke="white" stroke-miterlimit="10" stroke-linecap="round" stroke-linejoin="round"/>
<path d="M27.4676 26.4222C27.4676 26.4222 23.8142 22.6429 23.5622 22.5169C23.3103 22.3909 22.4914 22.076 21.7356 22.7688C20.9797 23.4617 21.2316 24.3436 21.6096 24.7215C22.4284 25.5404 23.3103 26.5482 24.4441 27.682C22.8064 30.1386 24.4441 32.3432 24.4441 32.3432H29.5462V23.9027C29.5462 23.4617 29.4203 23.0208 29.1683 22.6429L27.4676 20.0603" stroke="white" stroke-miterlimit="10" stroke-linecap="round" stroke-linejoin="round"/>
<path d="M26.6489 15.5249C27.3795 15.5249 27.9717 14.9327 27.9717 14.2022C27.9717 13.4716 27.3795 12.8794 26.6489 12.8794C25.9184 12.8794 25.3262 13.4716 25.3262 14.2022C25.3262 14.9327 25.9184 15.5249 26.6489 15.5249Z" stroke="white" stroke-miterlimit="10" stroke-linecap="round" stroke-linejoin="round"/>
<path d="M12.979 11.7456C13.5704 11.7456 14.0498 11.2662 14.0498 10.6748C14.0498 10.0834 13.5704 9.604 12.979 9.604C12.3876 9.604 11.9082 10.0834 11.9082 10.6748C11.9082 11.2662 12.3876 11.7456 12.979 11.7456Z" stroke="white" stroke-miterlimit="10" stroke-linecap="round" stroke-linejoin="round"/>
<path d="M10.8364 11.7456C11.4278 11.7456 11.9073 11.2662 11.9073 10.6748C11.9073 10.0834 11.4278 9.604 10.8364 9.604C10.245 9.604 9.76562 10.0834 9.76562 10.6748C9.76562 11.2662 10.245 11.7456 10.8364 11.7456Z" stroke="white" stroke-miterlimit="10" stroke-linecap="round" stroke-linejoin="round"/>
<path d="M13.5455 11.8718H10.207V14.2654H13.5455V11.8718Z" stroke="white" stroke-miterlimit="10" stroke-linecap="round" stroke-linejoin="round"/>
<path d="M15.2471 14.4541L13.6094 13.5723V12.5645L15.2471 11.6826V14.4541Z" stroke="white" stroke-miterlimit="10" stroke-linecap="round" stroke-linejoin="round"/>
<defs>
<linearGradient id="paint0_linear_4579_23059" x1="19.5" y1="0" x2="19.5" y2="39" gradientUnits="userSpaceOnUse">
<stop stop-color="#2B7198"/>
<stop offset="1" stop-color="#2B9198"/>
</linearGradient>
</defs>
</svg>
