<svg width="69" height="69" viewBox="0 0 69 69" fill="none" xmlns="http://www.w3.org/2000/svg">
<circle cx="34.5" cy="34.5" r="34.5" fill="url(#paint0_linear_5556_24794)"/>
<path d="M49.3418 18.5371H52.8988C53.8689 18.5371 54.6234 19.2916 54.6234 20.2617C54.6234 21.2318 53.8689 21.9863 52.8988 21.9863H49.4496" stroke="white" stroke-width="0.75" stroke-miterlimit="10" stroke-linecap="round" stroke-linejoin="round"/>
<path d="M49.3418 21.9858H54.8389C55.7012 21.9858 56.4558 22.7404 56.4558 23.6026C56.4558 24.4649 55.7012 25.2195 54.8389 25.2195H49.3418" stroke="white" stroke-width="0.75" stroke-miterlimit="10" stroke-linecap="round" stroke-linejoin="round"/>
<path d="M49.3412 25.1126H53.1137C53.976 25.1126 54.6227 25.7593 54.6227 26.6216V26.8372C54.6227 27.6995 53.976 28.3462 53.1137 28.3462H44.2867L44.2249 30.3942H40.826C40.826 30.3942 37.1612 29.963 35.8677 27.0528C33.712 27.0528 28.2148 26.945 28.2148 26.945V16.813H35.8677C35.8677 16.813 37.269 15.0884 41.5805 15.0884H51.0658C52.0358 15.0884 52.7904 15.8429 52.7904 16.813C52.7904 17.7831 52.0358 18.5376 51.0658 18.5376H49.3412" stroke="white" stroke-width="0.75" stroke-miterlimit="10" stroke-linecap="round" stroke-linejoin="round"/>
<path d="M52.6836 49.4727V53.0296C52.6836 53.9997 51.9291 54.7542 50.959 54.7542C49.9889 54.7542 49.2344 53.9997 49.2344 53.0296V49.5804" stroke="white" stroke-width="0.75" stroke-miterlimit="10" stroke-linecap="round" stroke-linejoin="round"/>
<path d="M49.2336 49.4727V54.9698C49.2336 55.8321 48.4791 56.5866 47.6168 56.5866C46.7545 56.5866 46 55.8321 46 54.9698V49.4727" stroke="white" stroke-width="0.75" stroke-miterlimit="10" stroke-linecap="round" stroke-linejoin="round"/>
<path d="M46.1086 49.472V53.2446C46.1086 54.1069 45.4619 54.7536 44.5996 54.7536H44.384C43.5217 54.7536 42.875 54.1069 42.875 53.2446L42.875 44.527L40.7705 44.4705L40.8271 40.9568C40.8271 40.9568 41.2582 37.2921 44.1685 35.9986C44.1685 33.8429 44.2763 28.3457 44.2763 28.3457H54.3005V35.9986C54.3005 35.9986 56.0251 37.3998 56.0251 41.7113V51.0888C56.0251 52.0589 55.2706 52.8134 54.3005 52.8134C53.3304 52.8134 52.5759 52.0589 52.5759 51.0888V49.3642" stroke="white" stroke-width="0.75" stroke-miterlimit="10" stroke-linecap="round" stroke-linejoin="round"/>
<path d="M22.5041 56.2636H20.1328C19.1627 56.2636 18.4082 55.5091 18.4082 54.5391C18.4082 53.569 19.1627 52.8145 20.1328 52.8145H21.8574" stroke="white" stroke-width="0.75" stroke-miterlimit="10" stroke-linecap="round" stroke-linejoin="round"/>
<path d="M21.8568 52.813H18.2998C17.3297 52.813 16.5752 52.0585 16.5752 51.0884C16.5752 50.1183 17.3297 49.3638 18.2998 49.3638H21.749" stroke="white" stroke-width="0.75" stroke-miterlimit="10" stroke-linecap="round" stroke-linejoin="round"/>
<path d="M21.8565 49.365H16.2516C15.3893 49.365 14.6348 48.6105 14.6348 47.7482C14.6348 46.8859 15.3893 46.1313 16.2516 46.1313H21.7487" stroke="white" stroke-width="0.75" stroke-miterlimit="10" stroke-linecap="round" stroke-linejoin="round"/>
<path d="M21.8571 46.2393H17.9768C17.1145 46.2393 16.4678 45.5926 16.4678 44.7303V44.6225C16.4678 43.7602 17.1145 43.1134 17.9768 43.1134H26.9004L26.9938 41.0654L30.3723 41.0655C30.3723 41.0655 34.0371 41.4966 35.3306 44.4069C37.4863 44.4069 42.9835 44.5147 42.9835 44.5147V54.5389H35.3306C35.3306 54.5389 33.9293 56.2635 29.6178 56.2635H28.6477" stroke="white" stroke-width="0.75" stroke-miterlimit="10" stroke-linecap="round" stroke-linejoin="round"/>
<path d="M18.4062 21.9867V18.4297C18.4062 17.4596 19.1608 16.7051 20.1308 16.7051C21.1009 16.7051 21.8554 17.4596 21.8554 18.4297V21.8789" stroke="white" stroke-width="0.75" stroke-miterlimit="10" stroke-linecap="round" stroke-linejoin="round"/>
<path d="M21.9639 21.9864V16.3815C21.9639 15.5192 22.7184 14.7646 23.5807 14.7646C24.3352 14.8724 25.0897 15.5192 25.0897 16.3815V21.8786" stroke="white" stroke-width="0.75" stroke-miterlimit="10" stroke-linecap="round" stroke-linejoin="round"/>
<path d="M25.09 21.9865V18.1062C25.09 17.2439 25.7367 16.5972 26.599 16.5972H26.8146C27.6769 16.5972 28.3236 17.2439 28.3236 18.1062V26.9772H30.3716V30.5017C30.3716 30.5017 29.9404 34.1665 27.0302 35.46C27.0302 37.6157 26.9224 43.1129 26.9224 43.1129H16.6826V35.46C16.6826 35.46 14.958 34.0587 14.958 29.7472V20.2619C14.958 19.2919 15.7125 18.5373 16.6826 18.5373C17.6527 18.5373 18.4072 19.2919 18.4072 20.2619V21.9865" stroke="white" stroke-width="0.75" stroke-miterlimit="10" stroke-linecap="round" stroke-linejoin="round"/>
<path d="M25.6278 56.8015C25.9255 56.8015 26.1667 56.5602 26.1667 56.2626C26.1667 55.9649 25.9255 55.7236 25.6278 55.7236C25.3302 55.7236 25.0889 55.9649 25.0889 56.2626C25.0889 56.5602 25.3302 56.8015 25.6278 56.8015Z" stroke="white" stroke-width="0.75" stroke-miterlimit="10" stroke-linecap="round" stroke-linejoin="round"/>
<defs>
<linearGradient id="paint0_linear_5556_24794" x1="34.5" y1="0" x2="34.5" y2="69" gradientUnits="userSpaceOnUse">
<stop stop-color="#2B7198"/>
<stop offset="1" stop-color="#2B9198"/>
</linearGradient>
</defs>
</svg>
