<svg width="39" height="39" viewBox="0 0 39 39" fill="none" xmlns="http://www.w3.org/2000/svg">
<circle cx="19.5" cy="19.5" r="19.5" fill="url(#paint0_linear_4579_23102)"/>
<path d="M24.0822 8H15.9883V11.6786H24.0822V8Z" stroke="white" stroke-miterlimit="10" stroke-linecap="round" stroke-linejoin="round"/>
<path d="M14.8274 15.3962H10.1553V20.0684H14.8274V15.3962Z" stroke="white" stroke-miterlimit="10" stroke-linecap="round" stroke-linejoin="round"/>
<path d="M15.9887 25.5444H9V30.2166H15.9887V25.5444Z" stroke="white" stroke-miterlimit="10" stroke-linecap="round" stroke-linejoin="round"/>
<path d="M31 17.7341L27.6963 14.4304L24.3926 17.7341L27.6963 21.0378L31 17.7341Z" stroke="white" stroke-miterlimit="10" stroke-linecap="round" stroke-linejoin="round"/>
<path d="M15.9883 28.1064H22.0783" stroke="white" stroke-miterlimit="10" stroke-linecap="round" stroke-linejoin="round"/>
<path d="M21.2969 17.7295H24.3391" stroke="white" stroke-miterlimit="10" stroke-linecap="round" stroke-linejoin="round"/>
<path d="M13.3936 9.83643H15.9892" stroke="white" stroke-miterlimit="10" stroke-linecap="round" stroke-linejoin="round"/>
<path d="M12.4941 20.3865V22.3011" stroke="white" stroke-miterlimit="10" stroke-linecap="round" stroke-linejoin="round"/>
<path d="M27.6943 21.0339V25.4382" stroke="white" stroke-miterlimit="10" stroke-linecap="round" stroke-linejoin="round"/>
<path d="M12.4941 10.8804V15.0781" stroke="white" stroke-miterlimit="10" stroke-linecap="round" stroke-linejoin="round"/>
<path d="M20.0361 11.6785V16.6855" stroke="white" stroke-miterlimit="10" stroke-linecap="round" stroke-linejoin="round"/>
<path d="M27.6949 30.3281C29.0452 30.3281 30.1399 29.2335 30.1399 27.8832C30.1399 26.5329 29.0452 25.4382 27.6949 25.4382C26.3446 25.4382 25.25 26.5329 25.25 27.8832C25.25 29.2335 26.3446 30.3281 27.6949 30.3281Z" stroke="white" stroke-miterlimit="10" stroke-linecap="round" stroke-linejoin="round"/>
<path d="M12.4944 10.7352C12.9908 10.7352 13.3931 10.3328 13.3931 9.83645C13.3931 9.34011 12.9908 8.93774 12.4944 8.93774C11.9981 8.93774 11.5957 9.34011 11.5957 9.83645C11.5957 10.3328 11.9981 10.7352 12.4944 10.7352Z" stroke="white" stroke-miterlimit="10" stroke-linecap="round" stroke-linejoin="round"/>
<path d="M12.4944 24.1042C12.6547 24.1042 12.7846 23.9743 12.7846 23.8139C12.7846 23.6536 12.6547 23.5237 12.4944 23.5237C12.3341 23.5237 12.2041 23.6536 12.2041 23.8139C12.2041 23.9743 12.3341 24.1042 12.4944 24.1042Z" stroke="white" stroke-miterlimit="10" stroke-linecap="round" stroke-linejoin="round"/>
<path d="M21.5989 15.6865C21.7592 15.6865 21.8891 15.5565 21.8891 15.3962C21.8891 15.2359 21.7592 15.106 21.5989 15.106C21.4386 15.106 21.3086 15.2359 21.3086 15.3962C21.3086 15.5565 21.4386 15.6865 21.5989 15.6865Z" stroke="white" stroke-miterlimit="10" stroke-linecap="round" stroke-linejoin="round"/>
<path d="M21.5989 13.6826C21.7592 13.6826 21.8891 13.5526 21.8891 13.3923C21.8891 13.232 21.7592 13.1021 21.5989 13.1021C21.4386 13.1021 21.3086 13.232 21.3086 13.3923C21.3086 13.5526 21.4386 13.6826 21.5989 13.6826Z" stroke="white" stroke-miterlimit="10" stroke-linecap="round" stroke-linejoin="round"/>
<path d="M21.5989 26.4821C21.7592 26.4821 21.8891 26.3522 21.8891 26.1919C21.8891 26.0316 21.7592 25.9016 21.5989 25.9016C21.4386 25.9016 21.3086 26.0316 21.3086 26.1919C21.3086 26.3522 21.4386 26.4821 21.5989 26.4821Z" stroke="white" stroke-miterlimit="10" stroke-linecap="round" stroke-linejoin="round"/>
<path d="M23.5022 28.3967C23.6625 28.3967 23.7924 28.2667 23.7924 28.1064C23.7924 27.9461 23.6625 27.8162 23.5022 27.8162C23.3419 27.8162 23.2119 27.9461 23.2119 28.1064C23.2119 28.2667 23.3419 28.3967 23.5022 28.3967Z" stroke="white" stroke-miterlimit="10" stroke-linecap="round" stroke-linejoin="round"/>
<path d="M19.6067 26.4821C19.767 26.4821 19.8969 26.3522 19.8969 26.1919C19.8969 26.0316 19.767 25.9016 19.6067 25.9016C19.4464 25.9016 19.3164 26.0316 19.3164 26.1919C19.3164 26.3522 19.4464 26.4821 19.6067 26.4821Z" stroke="white" stroke-miterlimit="10" stroke-linecap="round" stroke-linejoin="round"/>
<path d="M17.6125 26.4821C17.7728 26.4821 17.9028 26.3522 17.9028 26.1919C17.9028 26.0316 17.7728 25.9016 17.6125 25.9016C17.4522 25.9016 17.3223 26.0316 17.3223 26.1919C17.3223 26.3522 17.4522 26.4821 17.6125 26.4821Z" stroke="white" stroke-miterlimit="10" stroke-linecap="round" stroke-linejoin="round"/>
<path d="M20.0354 18.6282C20.5318 18.6282 20.9341 18.2259 20.9341 17.7295C20.9341 17.2332 20.5318 16.8308 20.0354 16.8308C19.5391 16.8308 19.1367 17.2332 19.1367 17.7295C19.1367 18.2259 19.5391 18.6282 20.0354 18.6282Z" stroke="white" stroke-miterlimit="10" stroke-linecap="round" stroke-linejoin="round"/>
<defs>
<linearGradient id="paint0_linear_4579_23102" x1="19.5" y1="0" x2="19.5" y2="39" gradientUnits="userSpaceOnUse">
<stop stop-color="#2B7198"/>
<stop offset="1" stop-color="#2B9198"/>
</linearGradient>
</defs>
</svg>
