<svg width="15" height="14" viewBox="0 0 15 14" fill="none" xmlns="http://www.w3.org/2000/svg">
<path fill-rule="evenodd" clip-rule="evenodd" d="M4.11229 1.25254C5.04514 0.448129 6.23493 0.00386264 7.46671 0C9.97739 0 12.0615 1.86668 12.2883 4.27376C13.7742 4.48376 14.9334 5.7279 14.9334 7.25484C14.9334 8.93112 13.5353 10.2667 11.8413 10.2667H9.33339C9.20962 10.2667 9.09092 10.2176 9.0034 10.13C8.91588 10.0425 8.86672 9.92382 8.86672 9.80005C8.86672 9.67629 8.91588 9.55759 9.0034 9.47007C9.09092 9.38255 9.20962 9.33339 9.33339 9.33339H11.8422C13.0471 9.33339 14.0001 8.38885 14.0001 7.25484C14.0001 6.1199 13.0481 5.17536 11.8413 5.17536H11.3746V4.70869C11.3755 2.63668 9.63952 0.933339 7.46671 0.933339C6.45859 0.937366 5.48508 1.30148 4.72176 1.96001C4.01522 2.56855 3.64562 3.30215 3.64562 3.87802V4.29616L3.23028 4.34189C1.92641 4.48469 0.933339 5.55523 0.933339 6.83017C0.933339 8.19938 2.08134 9.33339 3.52895 9.33339H5.60003C5.7238 9.33339 5.8425 9.38255 5.93002 9.47007C6.01753 9.55759 6.0667 9.67629 6.0667 9.80005C6.0667 9.92382 6.01753 10.0425 5.93002 10.13C5.8425 10.2176 5.7238 10.2667 5.60003 10.2667H3.52895C1.59414 10.2667 0 8.74165 0 6.83017C0 5.1847 1.18161 3.82202 2.74588 3.47669C2.87935 2.67121 3.39735 1.86854 4.11229 1.25254Z" fill="#7E8189"/>
<path fill-rule="evenodd" clip-rule="evenodd" d="M7.13609 3.86952C7.17944 3.82606 7.23094 3.79158 7.28763 3.76806C7.34433 3.74453 7.40511 3.73242 7.46649 3.73242C7.52788 3.73242 7.58866 3.74453 7.64535 3.76806C7.70205 3.79158 7.75355 3.82606 7.7969 3.86952L10.5969 6.66954C10.6845 6.75717 10.7338 6.87602 10.7338 6.99994C10.7338 7.12387 10.6845 7.24271 10.5969 7.33034C10.5093 7.41797 10.3904 7.4672 10.2665 7.4672C10.1426 7.4672 10.0237 7.41797 9.93611 7.33034L7.93316 5.32646V13.5333C7.93316 13.6571 7.884 13.7758 7.79648 13.8633C7.70896 13.9508 7.59026 14 7.46649 14C7.34272 14 7.22403 13.9508 7.13651 13.8633C7.04899 13.7758 6.99982 13.6571 6.99982 13.5333V5.32646L4.99688 7.33034C4.90925 7.41797 4.7904 7.4672 4.66648 7.4672C4.54255 7.4672 4.4237 7.41797 4.33608 7.33034C4.24845 7.24271 4.19922 7.12387 4.19922 6.99994C4.19922 6.87602 4.24845 6.75717 4.33608 6.66954L7.13609 3.86952Z" fill="#7E8189"/>
</svg>
